inDegrees=yes
name=ik_S54_A02_T01
DataType=double
version=3
OpenSimVersion=4.3-2021-08-27-4bc7ad9
endheader
time	pelvis_tilt	pelvis_list	pelvis_rotation	pelvis_tx	pelvis_ty	pelvis_tz	hip_flexion_r	hip_adduction_r	hip_rotation_r	knee_angle_r	knee_angle_r_beta	ankle_angle_r	subtalar_angle_r	mtp_angle_r	hip_flexion_l	hip_adduction_l	hip_rotation_l	knee_angle_l	knee_angle_l_beta	ankle_angle_l	subtalar_angle_l	mtp_angle_l	lumbar_extension	lumbar_bending	lumbar_rotation	arm_flex_r	arm_add_r	arm_rot_r	elbow_flex_r	pro_sup_r	wrist_flex_r	wrist_dev_r	arm_flex_l	arm_add_l	arm_rot_l	elbow_flex_l	pro_sup_l	wrist_flex_l	wrist_dev_l
19.57999999999967	-2.51282472874826	3.014635355748467	-86.45732062000826	0	0.9399999999999999	0	4.291837735151486	1.002572677790778	-4.441821229029584	5.839706293857973	0.1019221021772571	0	0	0	2.544665327810069	-1.735646351984592	-27.75948317063327	6.569899888494564	0.1146663845806385	0	0	0	0	0	0	36.76536684935628	-36.76536684935628	4.740330857079381	81.45292163152978	85.25966940596987	0	0	36.76536684935628	-36.76536684935628	4.740330857079381	81.45292163152978	85.25966940592048	0	0
19.59999999999967	-2.91454900573626	3.121170944972972	-88.32420623576439	0	0.9399999999999999	0	4.326684188942304	1.695791217131305	-3.563821654560033	5.439729410519607	0.0949411886311374	0	0	0	4.628882227313445	-2.708330830451126	-24.0093704484076	8.904361795894753	0.1554104311271587	0	0	0	0	0	0	36.80513216567445	-36.80513216567445	4.742525644699898	81.48292611869141	85.25747461845214	0	0	36.80513216567445	-36.80513216567445	4.742525644699898	81.48292611869141	85.25747461840318	0	0
19.61999999999967	-3.37623436830173	2.774859694231969	-89.42531658277176	0	0.9399999999999999	0	3.958189136712395	2.007552471499648	-4.14988279202408	5.385942190744937	0.09400242455057561	0	0	0	5.387459176496151	-3.848550132357032	-22.91740777018158	12.0300333701952	0.2099636914346961	0	0	0	0	0	0	36.83061912865475	-36.83061912865475	4.74390747306112	81.50181529450857	85.25609279015542	0	0	36.83061912865475	-36.83061912865475	4.74390747306112	81.50181529450857	85.25609279010678	0	0
19.63999999999967	-3.905726125818319	2.51500871439982	-90.31018372985481	0	0.9399999999999999	0	3.738258380457484	2.793235628005785	-3.615091411406683	5.300599632309668	0.09251291591380451	0	0	0	5.995885095865085	-4.413227557604907	-21.8915117849968	13.6874657437405	0.2388913434822061	0	0	0	0	0	0	36.85697345127663	-36.85697345127663	4.74534434005067	81.52145726096911	85.25465592323313	0	0	36.85697345127663	-36.85697345127663	4.74534434005067	81.52145726096911	85.25465592318466	0	0
19.65999999999967	-4.274762987007624	2.780945440954642	-91.29949827110143	0	0.9399999999999999	0	4.04273433835809	3.415102291129553	-2.969478361842539	5.418066081990649	0.09456309222136589	0	0	0	6.891936039202974	-4.784253735035579	-18.85603525168391	16.55726527726374	0.288978794214384	0	0	0	0	0	0	36.88498714904687	-36.88498714904687	4.746873020771959	81.5423543488689	85.25312724258329	0	0	36.88498714904687	-36.88498714904687	4.746873020771959	81.5423543488689	85.2531272425351	0	0
19.67999999999967	-4.333184899954024	2.962463358055782	-91.8564138409163	0	0.9399999999999999	0	4.287688779438947	3.619807227889176	-2.943282881080315	5.621196212654263	0.09810838181145223	0	0	0	7.501630007426769	-4.675936453873743	-14.18960575579071	18.99467897532409	0.331519688478748	0	0	0	0	0	0	36.90872336535007	-36.90872336535007	4.748178365185108	81.56019897023748	85.25182189823124	0	0	36.90872336535007	-36.90872336535007	4.748178365185108	81.56019897023748	85.25182189818329	0	0
19.69999999999967	-4.226357732358542	3.370260207471677	-92.87674123590271	0	0.9399999999999999	0	4.708936851008958	3.625574990970628	-2.651814594319945	6.038038609363515	0.1053836540959331	0	0	0	8.223765104019039	-3.531505012871459	-6.805002259844906	20.0659540323825	0.3502169654189074	0	0	0	0	0	0	36.94128267586348	-36.94128267586348	4.749966888506638	81.5846486205435	85.25003337499349	0	0	36.94128267586348	-36.94128267586348	4.749966888506638	81.5846486205435	85.25003337494586	0	0
19.71999999999967	-3.90996196368158	3.610810314514434	-93.76638917929311	0	0.9399999999999999	0	5.021352699553769	3.392612998667429	-2.471604961545903	6.31562041635505	0.1102283705715708	0	0	0	8.969775808054692	-2.321627941254901	-2.428401290587203	21.43223670747285	0.37406309661219	0	0	0	0	0	0	36.96147781752887	-36.96147781752887	4.751074228549452	81.59978615687183	85.24892603500247	0	0	36.96147781752887	-36.96147781752887	4.751074228549452	81.59978615687183	85.24892603495508	0	0
19.73999999999967	-3.61420380233649	3.66038826660863	-94.64112188015649	0	0.9399999999999999	0	5.067016099684948	3.163922232009178	-2.353177375127297	6.426941047099197	0.1121712821034529	0	0	0	9.009990551572471	-1.707975882249497	-0.3169724134007609	20.62383713075916	0.3599538623268076	0	0	0	0	0	0	36.97489286157634	-36.97489286157634	4.751808360224009	81.60982177305647	85.2481919033623	0	0	36.97489286157634	-36.97489286157634	4.751808360224009	81.60982177305647	85.24819190331503	0	0
19.75999999999967	-3.415283576520002	3.656993830330729	-95.57312119722067	0	0.9399999999999999	0	5.01820900598168	3.043772006301066	-1.428485108330203	6.398344817647319	0.1116721837458619	0	0	0	8.789455178016402	-0.745352889017459	2.120659380882594	18.33208631848047	0.31995526501729	0	0	0	0	0	0	36.98690976528327	-36.98690976528327	4.75248282603171	81.61904266694334	85.24751743758632	0	0	36.98690976528327	-36.98690976528327	4.75248282603171	81.61904266694334	85.24751743753907	0	0
19.77999999999967	-3.280298274323494	3.650131400221774	-96.47565471099882	0	0.9399999999999999	0	4.912806689672465	2.958385721916485	-1.344281475977064	6.424532075260125	0.1121292376132733	0	0	0	8.224035529658556	0.2820683089445946	2.374329288407277	15.4232936802057	0.2691872562216229	0	0	0	0	0	0	36.98871073880763	-36.98871073880763	4.752594542665556	81.62057057196526	85.24740572095774	0	0	36.98871073880763	-36.98871073880763	4.752594542665556	81.62057057196526	85.24740572091058	0	0
19.79999999999967	-3.27225142590945	3.728323529367764	-97.15609159878267	0	0.9399999999999999	0	4.830056170473965	2.972740824639301	-1.253811987059391	6.339704958104877	0.1106487251239393	0	0	0	8.275481484750161	0.2625484493083722	1.561516405806082	14.2489163189854	0.2486905046074458	0	0	0	0	0	0	36.99056411617516	-36.99056411617516	4.752709338065501	81.62214057432294	85.24729092556321	0	0	36.99056411617516	-36.99056411617516	4.752709338065501	81.62214057432294	85.24729092551605	0	0
19.81999999999967	-3.32718033001251	3.761688221952858	-97.43306259469392	0	0.9399999999999999	0	4.799515468694898	3.064245548419664	-1.157337651319965	6.279506427014894	0.1095980625515549	0	0	0	7.246510779563979	0.9692748464652847	-4.130898309020917	12.86574352594361	0.2245495852448605	0	0	0	0	0	0	37.01116803854298	-37.01116803854298	4.75384282566732	81.63763556196656	85.24615743801441	0	0	37.01116803854298	-37.01116803854298	4.75384282566732	81.63763556196656	85.24615743796747	0	0
19.83999999999967	-3.659573571646204	3.977565888595761	-98.258799766617	0	0.9399999999999999	0	4.891727856678021	3.598640782303494	-0.3344625656863137	6.308586975368886	0.1101056138686175	0	0	0	6.813407913396644	0.1681272995214259	-6.750508830874979	11.92330457364831	0.2081009225282618	0	0	0	0	0	0	37.0122676031622	-37.0122676031622	4.753945252505416	81.63903796532695	85.24605501118143	0	0	37.0122676031622	-37.0122676031622	4.753945252505416	81.63903796532695	85.2460550111345	0	0
19.85999999999967	-3.626627509448551	4.031366877198308	-98.37990083628831	0	0.9399999999999999	0	4.898786989873491	3.588245127495208	-0.1669890775050469	6.278628360407653	0.1095827373982067	0	0	0	6.552940891487758	0.2327994979657657	-3.652135553226751	11.10748290848378	0.193862148362038	0	0	0	0	0	0	37.02164853203581	-37.02164853203581	4.754471203962756	81.6462283775943	85.24552905974876	0	0	37.02164853203581	-37.02164853203581	4.754471203962756	81.6462283775943	85.24552905970194	0	0
19.87999999999967	-3.539997374394081	4.004394303691697	-98.31100566509745	0	0.9399999999999999	0	4.697374814482655	3.380452692813652	-0.0832032346574134	6.13163679778176	0.1070172506577335	0	0	0	6.10007160081046	-0.786826209483408	-9.264533806404083	12.42352740965605	0.2168314580102605	0	0	0	0	0	0	37.04225850748008	-37.04225850748008	4.755591638325934	81.66154420619213	85.24440862543788	0	0	37.04225850748008	-37.04225850748008	4.755591638325934	81.66154420619213	85.24440862539126	0	0
19.89999999999966	-3.485905495120913	3.888410596933574	-98.07166766392368	0	0.9399999999999999	0	4.491176333072261	3.221273169504481	-0.3331868743653391	6.09052811570908	0.1062997688044096	0	0	0	5.341970433922201	-2.282746081750692	-9.43337877055297	12.48609595068426	0.2179234850593718	0	0	0	0	0	0	37.05460902575103	-37.05460902575103	4.756247497395269	81.67050855951366	85.24375276639903	0	0	37.05460902575103	-37.05460902575103	4.756247497395269	81.67050855951366	85.24375276635253	0	0
19.91999999999966	-3.470792435298526	3.801814744604911	-97.78512982251223	0	0.9399999999999999	0	4.342038232437668	3.101109640163712	-0.6618417597757282	6.030004042973736	0.1052434244584613	0	0	0	6.051912143110896	-0.7786509593721849	-4.458476456008769	11.47450951107825	0.2002679710197201	0	0	0	0	0	0	37.06879206710327	-37.06879206710327	4.757033624252658	81.68125533010885	85.24296663957854	0	0	37.06879206710327	-37.06879206710327	4.757033624252658	81.68125533010885	85.24296663953216	0	0
19.93999999999966	-3.493145097513762	3.777365760452301	-97.64956328093666	0	0.9399999999999999	0	4.328202012371075	3.095043821243022	-0.815900439067089	6.041350884206835	0.10544146419768	0	0	0	5.979364000107378	-0.1294648038979073	-3.613523383092646	10.32408444033436	0.1801892657377507	0	0	0	0	0	0	37.07063889338188	-37.07063889338188	4.757147251814994	81.68280927564246	85.2428530120216	0	0	37.07063889338188	-37.07063889338188	4.757147251814994	81.68280927564246	85.24285301197521	0	0
19.95999999999966	-3.507145950244142	3.689595730358982	-97.44640978006373	0	0.9399999999999999	0	4.469801455960064	2.977577458702762	-1.005911398867166	6.318986371154335	0.1102871175652916	0	0	0	5.794414461187565	-0.535386810044905	-6.754563607473568	10.58161205761217	0.1846839705740643	0	0	0	0	0	0	37.08916264407934	-37.08916264407934	4.758134643126449	81.6963053411144	85.2418656207561	0	0	37.08916264407934	-37.08916264407934	4.758134643126449	81.6963053411144	85.2418656207099	0	0
19.97999999999966	-3.457769480284991	3.672533222462106	-97.47047603880692	0	0.9399999999999999	0	4.454351433990982	2.92957897824656	-0.9606380248983313	6.328181240956378	0.1104475983176294	0	0	0	5.754519984298726	-0.6054872470280751	-7.957548898632843	10.75994396935765	0.1877964495953989	0	0	0	0	0	0	37.08989793147246	-37.08989793147246	4.758179755793463	81.6969222814817	85.24182050809122	0	0	37.08989793147246	-37.08989793147246	4.758179755793463	81.6969222814817	85.24182050804505	0	0
19.99999999999966	-3.36793621854411	3.770796652084536	-97.54417457001993	0	0.9399999999999999	0	4.69755076273166	2.829225715671256	-0.8601206300961939	6.430364943080322	0.1122310403615694	0	0	0	5.851202793530396	0.02542084664705173	-5.110994073560677	10.00538099849404	0.1746268413401989	0	0	0	0	0	0	37.10008179144166	-37.10008179144166	4.758744278226208	81.70463956731882	85.24125598568496	0	0	37.10008179144166	-37.10008179144166	4.758744278226208	81.70463956731882	85.24125598563889	0	0
